name D:\school\WTK\thesis\model\3dpredictsim\Results\MidTarsalJoint\Fal_s1_bCst_PF_Natali2010_ls150_MT_nl_fitted6_MTP_Mu5_ig24.mot
datacolumns 128
datarows 4
range 1.70536794 1.73947530
endheader
time	pelvis_tilt	pelvis_list	pelvis_rotation	pelvis_tx	pelvis_ty	pelvis_tz	hip_flexion_l	hip_adduction_l	hip_rotation_l	hip_flexion_r	hip_adduction_r	hip_rotation_r	knee_angle_l	knee_angle_r	ankle_angle_l	ankle_angle_r	subtalar_angle_l	subtalar_angle_r	tmt_angle_l	tmt_angle_r	mtp_angle_l	mtp_angle_r	lumbar_extension	lumbar_bending	lumbar_rotation	arm_flex_l	arm_add_l	arm_rot_l	arm_flex_r	arm_add_r	arm_rot_r	elbow_flex_l	elbow_flex_r	pro_sup_l	pro_sup_r	glut_med1_l/activation	glut_med2_l/activation	glut_med3_l/activation	glut_min1_l/activation	glut_min2_l/activation	glut_min3_l/activation	semimem_l/activation	semiten_l/activation	bifemlh_l/activation	bifemsh_l/activation	sar_l/activation	add_long_l/activation	add_brev_l/activation	add_mag1_l/activation	add_mag2_l/activation	add_mag3_l/activation	tfl_l/activation	pect_l/activation	grac_l/activation	glut_max1_l/activation	glut_max2_l/activation	glut_max3_l/activation	iliacus_l/activation	psoas_l/activation	quad_fem_l/activation	gem_l/activation	peri_l/activation	rect_fem_l/activation	vas_med_l/activation	vas_int_l/activation	vas_lat_l/activation	med_gas_l/activation	lat_gas_l/activation	soleus_l/activation	tib_post_l/activation	flex_dig_l/activation	flex_hal_l/activation	tib_ant_l/activation	per_brev_l/activation	per_long_l/activation	per_tert_l/activation	ext_dig_l/activation	ext_hal_l/activation	ercspn_l/activation	intobl_l/activation	extobl_l/activation	glut_med1_r/activation	glut_med2_r/activation	glut_med3_r/activation	glut_min1_r/activation	glut_min2_r/activation	glut_min3_r/activation	semimem_r/activation	semiten_r/activation	bifemlh_r/activation	bifemsh_r/activation	sar_r/activation	add_long_r/activation	add_brev_r/activation	add_mag1_r/activation	add_mag2_r/activation	add_mag3_r/activation	tfl_r/activation	pect_r/activation	grac_r/activation	glut_max1_r/activation	glut_max2_r/activation	glut_max3_r/activation	iliacus_r/activation	psoas_r/activation	quad_fem_r/activation	gem_r/activation	peri_r/activation	rect_fem_r/activation	vas_med_r/activation	vas_int_r/activation	vas_lat_r/activation	med_gas_r/activation	lat_gas_r/activation	soleus_r/activation	tib_post_r/activation	flex_dig_r/activation	flex_hal_r/activation	tib_ant_r/activation	per_brev_r/activation	per_long_r/activation	per_tert_r/activation	ext_dig_r/activation	ext_hal_r/activation	ercspn_r/activation	intobl_r/activation	extobl_r/activation	
          1.70536794	         -2.93001335	          1.98984177	         -5.29017432	          2.13170993	          0.91750206	          0.00285677	         29.77418064	          3.05735106	         -2.90851376	        -16.44606982	         -0.48200257	          6.33845559	        -10.44757346	         -7.38567297	          5.05111826	         -1.70902930	         -5.85676720	          5.50228181	         -1.18880822	          7.20258169	          6.62835738	          8.39366303	         -1.81981170	         -0.09192802	          1.86700023	         -3.98015206	        -13.45478632	          9.81117752	          5.46435110	        -13.45073106	         17.26116921	         14.88183487	         31.27461566	         86.51662706	         86.51662706	          0.05000118	          0.05000133	          0.05947387	          0.05000063	          0.05000087	          0.05000435	          0.21417956	          0.06025568	          0.07423533	          0.05937363	          0.05000498	          0.10072154	          0.19778630	          0.20017350	          0.15064822	          0.09104119	          0.05947663	          0.05002230	          0.12438434	          0.05947525	          0.05947587	          0.09527392	          0.05000089	          0.05000182	          0.20949268	          0.05001309	          0.05000191	          0.05000126	          0.06981774	          0.06932782	          0.06006933	          0.05947456	          0.05947481	          0.05947432	          0.05595679	          0.05001977	          0.05002125	          0.50305198	          0.33191981	          0.21180960	          0.09832945	          0.35004192	          0.05289675	          0.05947577	          0.13574046	          0.11198590	          0.32920574	          0.11906131	          0.08432798	          0.31020386	          0.22079939	          0.12296276	          0.05000566	          0.05000120	          0.05000088	          0.06281317	          0.11845193	          0.05000057	          0.05000059	          0.05000088	          0.05000282	          0.05000201	          0.33795778	          0.05000253	          0.05000214	          0.05013065	          0.05002219	          0.05000587	          0.41548794	          0.66314523	          0.05000136	          0.05000622	          0.07074709	          0.20420014	          0.05000515	          0.05000349	          0.05000289	          0.31166744	          0.41964381	          0.37758671	          0.30033117	          0.30224817	          0.37972930	          0.05000028	          0.05715562	          0.13501113	          0.05000148	          0.05000045	          0.05000155	          0.05000008	          0.05000010	          0.05000016	
          1.71673706	         -2.92882469	          2.09256807	         -5.57033340	          2.14858298	          0.91663900	          0.00262260	         29.21801252	          3.44092844	         -2.70929917	        -16.31754262	         -0.77779870	          6.09941498	        -10.59339287	         -9.35021360	          4.42940257	         -2.20846545	         -6.20451568	          6.37566058	         -1.27539667	          6.71392284	          6.47153182	          9.67846969	         -1.63623412	         -0.30031502	          1.93695419	         -4.88180780	        -13.45056027	          9.55506469	          5.24258021	        -13.45936710	         17.59888211	         14.55699609	         32.47292827	         86.51662706	         86.51662706	          0.05766570	          0.05000512	          0.05000080	          0.05947720	          0.05947395	          0.05000389	          0.18006125	          0.05065725	          0.06240982	          0.05000298	          0.05001503	          0.11907272	          0.24260137	          0.24427983	          0.16815597	          0.08884985	          0.05000262	          0.07098370	          0.10457276	          0.05000273	          0.05000189	          0.10786411	          0.07074284	          0.06779592	          0.55031424	          0.18344375	          0.13799449	          0.08287090	          0.18401666	          0.18375283	          0.15554122	          0.05000030	          0.05000057	          0.05000008	          0.05000125	          0.07074684	          0.06982497	          0.59265507	          0.27904724	          0.20712323	          0.33924685	          0.36547431	          0.05947737	          0.05000134	          0.11411704	          0.09414659	          0.27676418	          0.10009499	          0.07089469	          0.26078911	          0.18562643	          0.10337507	          0.05001533	          0.05000376	          0.05000500	          0.05280747	          0.09958360	          0.09322617	          0.08231984	          0.05024177	          0.05003043	          0.05003018	          0.28412207	          0.06684801	          0.05003139	          0.05001738	          0.05001338	          0.05001306	          0.34930101	          0.57346321	          0.05000803	          0.05013996	          0.05947786	          0.17167146	          0.05001126	          0.09343262	          0.15908254	          0.26201882	          0.35279479	          0.34270996	          0.26914895	          0.30992858	          0.38291707	          0.05000041	          0.05000238	          0.13781195	          0.05000155	          0.05000055	          0.05000227	          0.05000041	          0.07485614	          0.05000583	
          1.72810618	         -2.92356054	          2.19395750	         -5.82265776	          2.16580368	          0.91581291	          0.00240065	         28.53066559	          3.75417430	         -2.44985161	        -16.13771407	         -1.07233221	          5.85201921	        -11.08343790	        -11.40121439	          3.88786730	         -2.80501742	         -6.56028801	          7.20956838	         -1.50889194	          6.03313203	          6.43720508	         11.04936372	         -1.42917427	         -0.51596718	          1.99611033	         -5.82625842	        -13.45208102	          9.34196456	          4.93280545	        -13.46757902	         17.85101472	         14.29850332	         33.66882311	         86.51662706	         86.51662706	          0.23026481	          0.05000069	          0.16306662	          0.05000284	          0.05000102	          0.05000201	          0.16486420	          0.05000207	          0.07297323	          0.05000059	          0.05000367	          0.10010486	          0.20395579	          0.20536724	          0.14137041	          0.09676546	          0.05000514	          0.05968283	          0.08792113	          0.05000395	          0.06692337	          0.09068237	          0.05947448	          0.05700014	          0.46264926	          0.15422152	          0.11601442	          0.06966961	          0.15470305	          0.15448125	          0.13076372	          0.05947501	          0.05947728	          0.05947428	          0.05000082	          0.05948513	          0.05870560	          0.56723426	          0.38110567	          0.21036111	          0.28520543	          0.37686634	          0.05000270	          0.05000009	          0.12077958	          0.07914906	          0.33105855	          0.08415000	          0.05960132	          0.21924651	          0.15605655	          0.08690765	          0.05001476	          0.05000452	          0.05000373	          0.05000082	          0.08372118	          0.13496526	          0.08103522	          0.05948317	          0.05948072	          0.05948036	          0.23886519	          0.05966016	          0.05003109	          0.05002924	          0.05003933	          0.05946981	          0.29366101	          0.55682301	          0.05001825	          0.05000531	          0.05000342	          0.14432443	          0.14923107	          0.07855520	          0.13374454	          0.22027919	          0.29659461	          0.28811626	          0.22627392	          0.28807707	          0.36761334	          0.05000008	          0.05245151	          0.16685067	          0.05000058	          0.05000021	          0.05000069	          0.05319525	          0.06293160	          0.05947502	
          1.73947530	         -2.91588149	          2.29236113	         -6.03953549	          2.18321708	          0.91505280	          0.00217361	         27.71997005	          4.00648008	         -2.18286525	        -15.89746215	         -1.36201948	          5.60569328	        -11.50848904	        -13.52786422	          3.23504767	         -3.50047821	         -6.91468628	          7.99094179	         -1.61535880	          5.13715139	          6.57127279	         12.51322509	         -1.21459807	         -0.73661983	          2.04588764	         -6.77396452	        -13.45779806	          9.18377942	          4.55568869	        -13.47813716	         18.02786839	         14.08279362	         34.85325666	         86.51662706	         86.51662706	          0.28035230	          0.25258555	          0.30540598	          0.19111743	          0.20402764	          0.18225870	          0.13860142	          0.07622722	          0.06134898	          0.08415779	          0.05004707	          0.08415835	          0.17146583	          0.17265324	          0.11885175	          0.11491199	          0.05000343	          0.05017767	          0.09662940	          0.18276862	          0.13973684	          0.09283785	          0.05000103	          0.05000081	          0.38894950	          0.12965501	          0.14819353	          0.05857140	          0.13005929	          0.12987291	          0.10993344	          0.05000116	          0.05000320	          0.05000021	          0.05000039	          0.05001277	          0.05000639	          0.66048141	          0.40939884	          0.22285985	          0.55526301	          0.36767946	          0.10624298	          0.07239672	          0.11905609	          0.06654066	          0.27832668	          0.07074510	          0.05010714	          0.37598005	          0.13119736	          0.07306358	          0.05001244	          0.05000115	          0.05000104	          0.05000178	          0.07074335	          0.13277028	          0.06812695	          0.05000869	          0.05000944	          0.05000729	          0.26339385	          0.05016238	          0.05000411	          0.05001139	          0.05000630	          0.05000429	          0.24743078	          0.52160375	          0.05000095	          0.05000708	          0.05000467	          0.14161921	          0.12546434	          0.06604293	          0.14161395	          0.18518868	          0.24934708	          0.24221928	          0.19022860	          0.27048768	          0.33144655	          0.05223943	          0.10863083	          0.16588887	          0.05000177	          0.05000071	          0.05000393	          0.06279909	          0.05290661	          0.05000075	
